<?xml version="1.0" standalone="no"?>
<!DOCTYPE svg PUBLIC "-//W3C//DTD SVG 20010904//EN"
 "http://www.w3.org/TR/2001/REC-SVG-20010904/DTD/svg10.dtd">
<svg version="1.0" xmlns="http://www.w3.org/2000/svg"
 width="1024.000000pt" height="1024.000000pt" viewBox="0 0 1024.000000 1024.000000"
 preserveAspectRatio="xMidYMid meet">

<g transform="translate(0.000000,1024.000000) scale(0.100000,-0.100000)"
fill="#000000" stroke="none">
<path d="M2 7793 c1 -1347 3 -2428 5 -2403 21 308 46 497 98 755 267 1316
1050 2482 2170 3230 560 374 1170 628 1820 760 258 52 447 77 755 98 25 2
-1056 4 -2402 5 l-2448 2 2 -2447z"/>
<path d="M5390 10233 c308 -21 497 -46 755 -98 980 -199 1882 -684 2594 -1396
561 -561 988 -1249 1235 -1992 146 -440 223 -842 259 -1357 2 -25 4 1056 5
2403 l2 2447 -2447 -2 c-1347 -1 -2428 -3 -2403 -5z"/>
<path d="M6075 8230 c-3 -5 -17 -10 -31 -10 -13 0 -24 -4 -24 -10 0 -5 -13
-10 -29 -10 -21 0 -30 -6 -34 -21 -4 -14 -11 -20 -21 -16 -9 4 -28 -5 -45 -18
-16 -14 -35 -25 -43 -25 -7 0 -40 -13 -73 -30 -33 -16 -68 -30 -77 -30 -9 0
-20 -4 -23 -10 -4 -6 -132 -10 -350 -10 -218 0 -346 -4 -350 -10 -3 -5 -23
-10 -43 -10 -21 0 -62 -9 -92 -20 -30 -11 -62 -20 -70 -20 -9 0 -35 -9 -58
-20 -22 -11 -59 -20 -81 -20 -38 0 -153 -52 -192 -86 -8 -8 -23 -14 -32 -14
-10 0 -36 -13 -59 -30 -22 -16 -50 -30 -60 -30 -11 0 -31 -9 -45 -20 -14 -11
-33 -20 -42 -20 -9 0 -30 -14 -48 -30 -18 -17 -39 -30 -47 -30 -9 0 -31 -9
-51 -20 -20 -11 -42 -20 -49 -20 -30 0 -78 -35 -149 -110 -42 -44 -81 -80 -87
-80 -12 0 -130 -112 -130 -123 0 -3 -13 -26 -30 -50 -16 -25 -30 -49 -30 -54
0 -15 -80 -207 -90 -217 -6 -6 -10 -29 -10 -52 0 -24 -4 -46 -10 -49 -5 -3
-10 -28 -10 -56 0 -45 -69 -279 -100 -341 -15 -28 -71 -88 -82 -88 -5 0 -34
-25 -65 -55 -53 -53 -99 -85 -123 -85 -6 0 -29 12 -52 27 -41 28 -91 38 -228
49 -36 3 -69 10 -75 15 -5 5 -93 9 -195 9 l-186 0 -69 -34 c-39 -19 -86 -51
-106 -73 -20 -21 -50 -46 -68 -55 -21 -12 -31 -24 -31 -41 0 -13 -8 -32 -19
-41 -10 -9 -21 -35 -25 -56 -4 -26 -12 -40 -21 -40 -8 0 -15 -7 -15 -15 0 -8
-4 -15 -10 -15 -5 0 -10 -9 -10 -19 0 -11 -5 -23 -10 -26 -5 -3 -10 -18 -10
-32 0 -16 -7 -27 -20 -30 -16 -4 -20 -14 -20 -48 0 -29 -6 -47 -20 -60 -12
-11 -20 -31 -20 -51 0 -18 -4 -36 -10 -39 -5 -3 -10 -26 -10 -50 0 -24 -4 -47
-10 -50 -5 -3 -10 -30 -10 -59 0 -40 -5 -57 -20 -71 -17 -16 -20 -31 -20 -110
0 -50 -4 -95 -9 -101 -5 -5 -12 -54 -15 -109 -11 -207 -20 -282 -39 -302 -12
-14 -17 -37 -17 -81 0 -33 -4 -64 -10 -67 -5 -3 -10 -25 -10 -49 0 -23 -4 -46
-10 -52 -5 -5 -11 -146 -13 -344 -4 -350 -12 -436 -40 -468 -10 -11 -17 -35
-17 -60 0 -22 -4 -43 -9 -46 -5 -3 -11 -23 -14 -43 -9 -63 -28 -133 -37 -133
-13 0 -40 -59 -40 -86 0 -13 -13 -46 -30 -72 -16 -27 -30 -52 -30 -55 0 -4
-22 -52 -50 -108 -27 -56 -50 -106 -50 -111 0 -6 -27 -63 -60 -129 -33 -65
-60 -131 -60 -146 -1 -34 -43 -110 -88 -157 -17 -19 -32 -44 -32 -55 0 -14 -9
-25 -25 -31 -39 -15 -40 -34 -5 -85 30 -43 33 -45 53 -32 12 8 32 34 44 58 12
24 28 51 35 59 35 40 125 209 143 270 4 13 32 72 61 130 30 58 54 112 54 121
0 9 7 22 15 29 19 16 45 68 45 91 0 10 5 21 10 24 6 3 10 14 10 24 0 10 8 29
19 42 10 13 24 42 32 64 7 22 17 44 21 50 4 5 8 19 8 30 0 12 9 30 20 40 11
10 20 31 20 47 0 15 5 28 10 28 6 0 10 20 10 44 0 25 5 48 10 51 6 3 10 26 10
50 0 24 4 47 10 50 5 3 10 26 10 50 0 34 5 47 20 55 19 10 20 21 20 350 0 220
4 340 10 340 6 0 10 22 10 49 0 28 5 53 10 56 6 3 10 39 10 78 0 60 3 75 20
90 17 14 20 29 20 101 0 47 5 88 10 91 6 3 10 52 10 111 0 63 4 104 10 104 6
0 10 40 10 99 0 56 4 103 10 106 6 3 10 28 10 54 0 33 6 56 20 74 12 16 20 40
20 65 0 23 4 43 9 46 9 6 16 40 29 138 4 31 15 65 25 76 9 10 17 26 17 35 0 9
14 32 30 50 16 19 30 39 30 43 0 5 10 20 23 34 12 14 28 37 36 52 8 15 22 30
32 33 9 3 22 19 27 34 10 29 105 101 134 101 7 0 19 5 25 11 15 15 486 -2 528
-20 90 -39 133 -58 150 -68 19 -11 19 -12 -5 -35 -14 -14 -33 -27 -43 -31 -9
-4 -21 -17 -26 -29 -5 -13 -25 -39 -45 -57 -20 -19 -36 -42 -36 -51 0 -17 -28
-80 -39 -90 -3 -3 -19 -32 -35 -65 -16 -33 -33 -67 -38 -75 -24 -41 -48 -97
-48 -113 0 -35 23 -11 66 68 23 44 49 87 58 96 9 9 16 24 16 35 0 24 160 187
229 235 27 18 62 52 77 76 15 23 69 84 120 135 52 51 94 96 94 100 0 4 11 24
25 44 14 20 25 45 25 54 0 10 7 23 15 30 8 7 15 21 15 31 0 11 5 19 10 19 6 0
10 9 10 19 0 11 5 23 10 26 6 3 10 17 10 30 0 13 5 27 10 30 6 3 10 16 10 29
0 12 4 26 9 31 5 6 12 37 14 70 3 33 10 83 16 110 6 28 13 65 17 83 3 18 10
35 15 38 5 3 9 14 9 25 0 10 4 27 9 37 5 9 13 28 19 42 30 73 43 98 66 119 14
14 26 30 26 38 0 7 7 13 15 13 9 0 20 11 25 25 5 14 14 25 20 25 6 0 37 24 69
54 32 30 68 57 80 61 11 3 21 13 21 21 0 8 9 14 21 14 11 0 33 8 47 18 40 26
64 40 97 58 17 9 34 23 38 30 4 8 17 14 28 14 10 0 27 4 37 9 9 5 49 21 87 36
39 14 83 33 98 41 16 8 40 14 55 14 26 0 83 15 114 31 9 4 36 9 60 11 23 1 64
10 91 20 26 10 69 18 96 18 42 0 119 23 173 51 10 5 35 9 56 9 21 0 43 5 49
11 17 17 294 2 327 -19 6 -3 17 -7 26 -7 103 -10 190 -36 230 -69 8 -7 62 -27
120 -46 58 -19 121 -41 140 -51 30 -15 75 -17 345 -18 170 -1 314 -6 320 -11
11 -9 108 -15 435 -28 195 -7 219 -12 262 -49 21 -19 58 -8 58 17 0 11 -13 26
-30 35 -16 9 -30 19 -30 23 0 24 -64 32 -246 32 -118 0 -195 4 -199 10 -4 6
-55 10 -120 10 -65 0 -116 4 -120 10 -4 6 -120 10 -315 10 -295 0 -312 1 -357
21 -27 12 -57 25 -68 29 -11 4 -33 13 -48 19 -15 6 -38 11 -50 11 -12 0 -57
18 -100 40 -56 29 -91 40 -122 40 -24 0 -47 5 -50 10 -3 6 -16 10 -29 10 -12
0 -27 5 -32 10 -6 6 -33 11 -60 11 -27 1 -54 6 -61 11 -15 12 -256 4 -313 -11
-25 -7 -52 -13 -60 -15 -15 -3 -24 -7 -89 -32 -18 -8 -40 -14 -48 -14 -8 0
-31 -8 -51 -18 -21 -10 -60 -19 -87 -21 -28 -1 -54 -6 -60 -12 -11 -11 -35
-12 -35 -1 0 14 48 32 86 32 19 0 45 5 57 12 34 18 148 59 192 68 22 5 60 14
85 21 30 9 156 14 390 16 309 3 349 5 385 22 22 10 52 21 67 25 14 3 40 17 56
31 17 14 37 25 45 25 17 0 67 25 76 38 35 52 327 59 423 11 10 -5 63 -9 117
-9 56 0 103 -4 106 -10 3 -5 30 -10 60 -10 30 0 57 -4 60 -10 3 -5 17 -10 30
-10 13 0 27 -4 30 -10 3 -6 52 -10 111 -10 79 0 114 -4 147 -19 71 -31 133
-41 248 -41 111 0 150 -10 187 -46 16 -17 44 -18 59 -3 13 13 131 -25 181 -58
19 -12 43 -25 54 -29 11 -3 29 -15 39 -25 10 -10 26 -19 34 -19 8 0 15 -4 15
-10 0 -5 7 -10 15 -10 8 0 15 -5 15 -11 0 -12 50 -59 63 -59 4 0 7 -9 7 -20 0
-11 5 -20 11 -20 6 0 50 -36 97 -80 48 -44 92 -80 99 -80 7 0 13 -6 13 -13 0
-15 165 -177 180 -177 19 0 50 -77 44 -109 -9 -44 2 -76 31 -89 19 -9 25 -19
25 -42 0 -16 5 -30 10 -30 6 0 10 -10 10 -21 0 -22 35 -140 51 -171 5 -10 9
-91 9 -181 0 -163 0 -164 30 -218 23 -42 30 -67 30 -111 0 -31 -4 -60 -10 -63
-5 -3 -10 -31 -10 -61 0 -30 -7 -68 -15 -83 -36 -71 -45 -117 -45 -243 0 -74
-4 -129 -10 -133 -16 -10 -12 -162 5 -196 18 -35 42 -65 69 -88 10 -9 24 -22
30 -29 10 -12 22 -24 81 -77 12 -11 31 -34 42 -52 11 -18 31 -42 46 -53 15
-12 31 -39 37 -61 6 -22 20 -49 31 -60 10 -10 19 -23 19 -28 0 -4 9 -19 20
-33 10 -14 26 -44 34 -67 8 -23 27 -60 42 -82 15 -23 32 -64 36 -92 5 -29 11
-67 15 -86 3 -18 14 -42 24 -52 11 -11 19 -30 19 -44 0 -14 9 -45 20 -67 25
-52 25 -69 0 -101 -17 -21 -20 -40 -20 -130 0 -97 -2 -108 -27 -146 -15 -23
-32 -41 -38 -41 -6 0 -16 -21 -24 -48 -7 -26 -17 -57 -22 -70 -5 -13 -9 -39
-9 -58 0 -41 -45 -143 -72 -162 -10 -7 -24 -25 -32 -40 -8 -15 -24 -38 -36
-50 -26 -28 -60 -115 -60 -155 0 -34 -13 -59 -48 -95 -37 -37 -63 -77 -96
-144 -15 -31 -34 -62 -42 -69 -8 -6 -14 -19 -14 -28 -1 -51 -69 -180 -121
-228 -55 -51 -119 -137 -119 -162 0 -11 -4 -23 -10 -26 -5 -3 -10 -30 -10 -60
0 -30 -4 -56 -9 -59 -10 -6 -20 -54 -27 -136 -3 -30 -10 -59 -15 -65 -5 -5 -9
-59 -9 -120 l0 -110 -95 -97 c-52 -53 -95 -103 -95 -110 0 -8 -17 -24 -37 -35
-21 -12 -84 -68 -139 -125 -97 -99 -124 -141 -124 -195 0 -7 -4 -13 -9 -13 -5
0 -17 -18 -27 -40 -10 -22 -22 -40 -27 -40 -4 0 -20 -14 -34 -30 -13 -17 -33
-30 -43 -30 -11 0 -32 -5 -47 -11 -66 -28 -116 -51 -126 -60 -7 -5 -39 -26
-72 -47 -33 -20 -69 -43 -80 -50 -19 -11 -96 -49 -223 -108 -31 -14 -71 -24
-97 -24 -24 0 -47 -5 -50 -10 -9 -14 -1315 -14 -1315 0 0 6 -18 10 -40 10 -22
0 -55 9 -75 20 -20 11 -47 20 -60 20 -14 0 -30 9 -37 20 -9 14 -24 20 -50 20
-21 0 -38 4 -38 9 0 9 -32 17 -103 28 -20 3 -40 9 -43 14 -3 5 -13 9 -23 9
-10 0 -26 9 -36 20 -10 11 -33 22 -51 26 -19 3 -34 9 -34 13 0 6 -56 38 -151
86 -10 5 -22 17 -24 25 -6 15 -116 90 -145 97 -9 2 -24 20 -35 39 -10 19 -24
34 -32 34 -7 0 -13 6 -13 14 0 8 -8 17 -17 21 -10 3 -27 20 -38 38 -11 18 -30
36 -43 42 -12 5 -22 14 -22 19 0 15 -82 96 -97 96 -7 0 -13 5 -13 11 0 12 -25
39 -37 39 -5 0 -24 15 -43 33 -19 18 -57 50 -85 72 -65 51 -95 82 -95 94 0 6
-10 16 -22 22 -13 7 -39 29 -58 50 -35 38 -87 69 -114 69 -8 0 -43 27 -78 60
-34 33 -77 67 -93 75 -17 7 -109 93 -205 189 -96 97 -181 176 -187 176 -7 0
-13 6 -13 13 0 16 -91 107 -108 107 -7 0 -12 6 -12 13 0 6 -45 56 -100 110
-78 76 -108 113 -136 170 -20 39 -40 74 -45 75 -5 2 -9 12 -9 22 0 10 -14 34
-30 52 -17 18 -30 36 -30 40 0 4 -23 31 -51 60 -77 81 -89 117 -89 267 0 103
-4 136 -21 180 -30 80 -46 107 -84 146 -21 21 -35 44 -35 59 0 14 -5 28 -10
31 -5 3 -10 21 -10 40 0 19 -4 37 -10 40 -6 4 -10 82 -10 201 0 175 2 199 20
236 15 31 20 62 20 122 0 100 -6 121 -34 134 -42 19 -66 -19 -66 -108 0 -41
-6 -73 -20 -100 -18 -36 -20 -59 -20 -294 0 -159 4 -257 10 -261 6 -3 10 -17
10 -31 0 -30 35 -102 64 -129 12 -11 33 -46 49 -78 25 -53 27 -67 27 -181 0
-123 17 -210 48 -247 7 -8 37 -45 68 -84 31 -38 59 -72 63 -75 3 -3 15 -22 26
-42 11 -21 22 -38 26 -38 4 0 9 -12 12 -27 12 -58 86 -160 197 -275 62 -65
120 -118 127 -118 7 0 13 -5 13 -10 0 -6 38 -50 85 -98 47 -47 85 -90 85 -94
0 -5 4 -8 8 -8 5 0 65 -56 134 -124 69 -68 143 -133 166 -145 22 -11 43 -30
47 -40 3 -11 15 -23 26 -26 11 -4 30 -17 43 -30 25 -25 120 -75 143 -75 7 0
51 -39 98 -87 131 -137 158 -162 190 -175 31 -13 55 -32 55 -43 0 -11 90 -95
101 -95 5 0 9 -4 9 -9 0 -12 59 -71 71 -71 5 0 9 -9 9 -20 0 -13 7 -20 20 -20
11 0 20 -6 20 -12 0 -7 22 -31 50 -53 27 -22 49 -44 50 -49 0 -11 62 -66 75
-66 6 0 37 -21 69 -45 33 -25 65 -45 73 -45 7 0 13 -5 13 -10 0 -13 156 -90
182 -90 10 0 18 -7 18 -15 0 -15 72 -55 99 -55 23 0 147 -39 251 -79 30 -12
73 -21 96 -21 27 0 49 -7 64 -20 22 -19 37 -20 536 -20 331 0 515 -4 519 -10
3 -5 26 -10 51 -10 24 0 44 5 44 10 0 6 50 10 130 10 72 0 138 4 148 8 9 5 36
18 59 30 23 12 55 22 71 22 15 0 47 9 70 20 22 11 46 20 52 20 16 0 107 50
121 66 6 8 15 14 20 14 4 0 29 15 54 33 84 58 139 85 177 86 20 1 40 -3 43 -9
3 -5 25 -10 49 -10 23 0 46 -4 51 -9 6 -5 28 -12 50 -15 22 -3 67 -9 100 -14
33 -5 80 -16 105 -25 25 -9 51 -17 59 -17 20 0 122 80 115 91 -3 5 -23 9 -44
9 -21 0 -42 5 -45 10 -3 6 -19 10 -36 10 -16 0 -29 5 -29 10 0 6 -9 10 -20 10
-11 0 -28 4 -38 9 -62 32 -73 34 -84 23 -15 -15 -78 -16 -78 -2 0 6 -6 10 -14
10 -8 0 -17 4 -21 9 -6 11 14 61 25 61 11 0 60 77 103 163 21 42 43 77 49 77
5 0 39 28 74 62 35 33 74 66 86 72 11 6 26 20 32 31 29 50 73 109 91 119 43
25 95 80 95 102 0 13 5 26 10 29 5 3 10 46 10 95 0 49 5 92 10 95 6 3 10 33
10 66 0 40 7 74 20 101 13 27 20 62 20 99 0 32 5 61 10 64 6 3 10 14 10 23 0
9 18 43 40 75 22 31 40 61 40 65 0 5 10 18 23 29 81 77 137 162 137 209 0 29
22 75 44 93 9 8 16 22 16 32 0 25 61 112 106 151 25 22 34 38 34 61 0 53 46
173 81 210 10 11 19 26 19 32 0 6 22 34 50 61 44 43 50 54 50 91 0 23 5 45 10
48 6 3 10 29 10 56 0 52 25 104 69 143 28 25 51 73 51 106 0 14 5 31 11 37 13
13 7 289 -8 351 -6 23 -17 50 -26 60 -14 16 -21 46 -33 140 -5 33 -10 42 -25
42 -15 0 -19 7 -19 35 0 19 -4 43 -9 53 -4 9 -22 47 -40 85 -17 37 -35 67 -40
67 -5 0 -32 45 -61 100 -29 57 -57 100 -65 100 -8 0 -15 7 -15 15 0 7 -6 18
-13 22 -8 4 -26 27 -42 51 -15 23 -34 42 -41 42 -8 0 -14 5 -14 11 0 14 -67
79 -81 79 -5 0 -9 5 -9 11 0 6 -7 17 -15 26 -26 25 -11 432 16 449 5 3 9 16 9
29 0 13 5 27 10 30 6 3 10 26 10 50 0 24 5 47 10 50 6 4 10 58 10 129 0 116
-2 126 -30 184 -30 62 -30 64 -30 227 0 91 -4 173 -10 183 -24 45 -70 199 -70
238 0 24 -4 44 -10 44 -5 0 -10 13 -10 28 0 27 -54 118 -136 229 -17 23 -37
56 -44 73 -7 16 -18 30 -25 30 -6 0 -17 11 -24 24 -17 32 -85 55 -112 38 -16
-10 -24 -9 -44 5 -13 10 -29 30 -36 46 -6 15 -17 27 -25 27 -7 0 -16 9 -19 20
-3 11 -13 20 -21 20 -8 0 -14 7 -14 15 0 8 -6 15 -13 15 -7 0 -37 23 -66 50
-29 28 -57 50 -62 50 -5 0 -9 6 -9 13 0 8 -19 23 -42 35 -24 12 -54 28 -68 36
-35 19 -68 32 -120 46 -25 6 -87 25 -137 41 -51 16 -106 29 -122 29 -16 0 -33
5 -36 10 -9 14 -111 13 -134 -2 -15 -9 -25 -9 -46 0 -14 7 -37 12 -50 12 -13
0 -27 5 -30 10 -3 6 -19 10 -34 10 -15 0 -32 5 -37 10 -6 6 -27 12 -47 14 -19
2 -43 11 -52 20 -14 14 -48 16 -276 16 -166 0 -259 4 -259 10 0 6 -13 10 -29
10 -17 0 -33 5 -36 10 -3 6 -28 10 -55 10 -27 0 -52 5 -55 10 -4 6 -53 10
-115 10 -62 0 -111 -4 -115 -10z"/>
<path d="M4495 7208 c-33 -19 -136 -43 -278 -64 -20 -4 -40 -10 -43 -15 -3 -5
-25 -9 -49 -9 -24 0 -47 -4 -50 -10 -3 -5 -22 -10 -40 -10 -19 0 -64 -13 -100
-30 -36 -16 -74 -30 -85 -30 -22 0 -54 -16 -84 -42 -11 -10 -25 -18 -31 -18
-16 0 -45 -33 -45 -52 0 -9 6 -18 13 -21 14 -5 220 94 248 119 8 8 35 14 58
14 23 0 51 5 61 10 11 6 42 12 69 13 28 2 54 6 57 10 4 4 23 7 41 7 19 0 43 5
53 10 11 6 36 11 57 13 21 1 43 5 48 8 6 3 30 11 55 18 25 7 55 17 68 22 13 5
33 9 45 9 13 0 29 6 35 12 10 10 89 14 300 16 255 4 289 2 301 -12 7 -9 27
-16 43 -16 16 0 39 -5 50 -11 16 -8 24 -8 35 3 20 20 8 42 -31 56 -45 17 -772
16 -801 0z"/>
<path d="M6947 7157 c-120 -60 -155 -95 -125 -125 9 -9 37 2 125 48 l113 60
219 0 c136 0 222 -4 226 -10 3 -5 16 -10 28 -10 69 0 248 -96 281 -152 9 -14
44 -47 79 -72 34 -25 67 -51 74 -56 17 -14 81 -21 89 -9 5 9 -16 32 -63 69
-48 38 -83 60 -93 60 -5 0 -10 4 -10 9 0 12 -55 67 -75 74 -8 4 -15 13 -15 22
0 8 -7 15 -15 15 -8 0 -24 9 -34 19 -10 10 -28 22 -39 25 -11 4 -26 13 -32 21
-7 8 -25 15 -41 15 -15 0 -31 5 -34 10 -3 6 -21 10 -40 10 -19 0 -37 5 -40 10
-4 6 -98 10 -248 10 l-242 0 -88 -43z"/>
<path d="M5396 6804 c-8 -20 7 -40 42 -57 41 -19 158 -187 164 -233 2 -15 9
-29 16 -32 11 -3 17 48 15 116 -1 25 -147 187 -186 207 -38 19 -43 19 -51 -1z"/>
<path d="M6905 6688 c-13 -63 -29 -342 -21 -375 8 -28 31 -30 46 -4 5 11 10
62 10 115 0 52 4 98 10 101 14 9 13 158 -2 173 -19 19 -37 14 -43 -10z"/>
<path d="M7715 6030 c-3 -5 -21 -10 -39 -10 -17 0 -36 -4 -41 -9 -9 -8 -34
-13 -152 -27 -27 -3 -57 -9 -68 -14 -11 -5 -40 -11 -65 -14 -79 -8 -114 -17
-165 -42 -69 -32 -125 -97 -125 -143 0 -11 -4 -23 -10 -26 -12 -8 -13 -195 -1
-227 29 -75 45 -108 53 -108 4 0 8 -6 8 -13 0 -21 105 -103 180 -142 16 -8 41
-15 55 -15 14 0 33 -9 42 -20 15 -17 30 -20 90 -20 39 0 75 -4 78 -10 4 -6 61
-10 138 -10 115 0 136 3 162 20 54 35 59 38 110 53 53 15 66 31 115 137 17 35
19 49 11 68 -17 36 -13 88 9 127 15 26 20 54 20 103 0 48 -6 81 -20 110 -11
22 -20 46 -20 52 0 17 -30 73 -54 98 -26 29 -78 52 -117 52 -18 0 -32 7 -39
20 -9 17 -21 20 -80 20 -38 0 -72 -4 -75 -10z m195 -145 l30 -16 0 -149 c0
-139 1 -150 20 -160 40 -22 17 -110 -44 -169 l-36 -35 0 35 c-1 18 -6 43 -13
54 -26 45 -61 85 -74 85 -7 0 -13 5 -13 11 0 17 -59 72 -93 87 -17 7 -75 12
-152 12 -116 0 -128 -2 -172 -27 -26 -14 -49 -30 -51 -35 -2 -4 -10 -8 -17 -8
-8 0 -33 -18 -57 -40 -24 -22 -45 -40 -48 -40 -14 0 -30 62 -30 117 0 64 15
108 44 132 9 8 16 24 16 37 0 20 5 24 30 24 31 0 55 11 99 43 15 10 42 17 72
17 26 0 51 5 54 10 3 6 35 10 70 10 35 0 67 5 70 10 11 17 261 13 295 -5z"/>
<path d="M6672 5671 c-19 -43 -4 -263 19 -277 5 -3 9 -16 9 -30 0 -13 4 -24 9
-24 13 0 50 -80 56 -122 4 -23 11 -38 20 -38 7 0 19 -13 27 -30 10 -23 19 -30
41 -30 21 0 31 -7 44 -35 9 -19 25 -37 35 -41 26 -8 125 -107 133 -133 3 -11
15 -23 26 -26 11 -4 28 -16 39 -27 10 -11 29 -26 41 -32 27 -13 54 -84 46
-118 -4 -13 -16 -35 -27 -48 -11 -13 -20 -29 -20 -37 0 -7 -4 -13 -10 -13 -5
0 -25 -30 -44 -67 -18 -38 -43 -77 -55 -87 -12 -11 -21 -24 -21 -29 0 -6 -8
-19 -17 -29 -11 -13 -20 -45 -24 -90 -4 -43 -12 -74 -20 -79 -26 -16 -103 -10
-129 11 -19 15 -41 20 -96 20 -79 0 -101 -13 -90 -54 5 -21 21 -31 79 -50 16
-5 17 -16 15 -88 l-3 -83 -104 -3 c-82 -2 -112 1 -140 15 -20 9 -63 19 -96 21
-33 2 -64 8 -70 13 -5 5 -21 9 -36 9 -15 0 -31 5 -34 10 -3 6 -17 10 -30 10
-28 0 -75 20 -75 32 0 4 -32 8 -72 8 -67 0 -119 10 -160 31 -10 5 -46 9 -80 9
-80 0 -92 8 -83 49 12 55 -13 71 -106 71 -43 0 -81 5 -84 10 -3 6 -16 10 -28
10 -63 1 -177 175 -177 269 0 63 13 71 110 71 57 0 77 4 97 20 27 21 78 27 88
10 3 -5 22 -10 41 -10 27 0 36 5 43 23 5 12 21 33 35 46 23 22 26 32 26 92 0
64 -2 69 -26 82 -39 20 -74 2 -74 -38 0 -17 -4 -35 -9 -40 -5 -6 -11 -21 -13
-35 -3 -24 -6 -25 -88 -28 -47 -2 -89 -7 -94 -12 -6 -6 -47 -10 -93 -10 -47 0
-83 -4 -83 -10 0 -5 -13 -25 -30 -43 -29 -33 -30 -38 -30 -130 0 -53 4 -99 10
-102 6 -3 10 -17 10 -31 0 -13 4 -24 9 -24 6 0 24 -27 42 -60 17 -33 38 -60
45 -60 8 0 23 -9 34 -20 11 -11 33 -20 50 -20 20 0 33 -7 41 -22 7 -13 19 -29
26 -37 38 -37 -78 -322 -164 -404 -39 -37 -43 -46 -43 -89 0 -37 4 -50 20 -58
32 -17 92 27 146 110 16 25 32 47 36 50 20 15 78 162 78 198 0 31 5 43 25 56
36 24 104 20 145 -7 24 -16 48 -23 75 -22 22 1 48 -4 59 -11 10 -7 23 -11 30
-8 6 2 31 -14 55 -36 34 -30 47 -37 57 -29 17 14 79 -31 122 -89 13 -17 29
-24 57 -26 22 -1 47 -6 55 -11 8 -5 27 -8 42 -7 16 1 31 -3 34 -11 5 -14 70
-11 80 4 3 5 28 9 55 9 36 0 56 6 71 20 12 11 32 20 44 20 12 0 24 4 26 9 2 4
31 11 66 14 l62 5 0 -73 c0 -41 5 -77 10 -80 6 -3 10 -41 10 -84 0 -116 24
-153 78 -115 21 14 22 23 22 130 0 69 -4 114 -10 114 -6 0 -10 43 -10 109 0
63 -4 112 -10 116 -14 8 -13 145 0 145 6 0 25 -7 42 -16 42 -22 71 -12 134 48
l54 51 0 73 c0 42 4 74 10 74 5 0 12 11 16 25 3 14 12 25 20 25 7 0 19 10 25
22 6 12 20 31 30 42 11 11 19 29 19 40 0 11 7 28 17 38 18 20 36 50 54 88 6
14 15 33 20 42 5 10 9 31 9 47 0 17 5 33 10 36 20 12 9 57 -22 95 -18 22 -38
40 -44 40 -6 0 -60 49 -120 108 -60 59 -121 113 -136 120 -16 6 -28 18 -28 25
0 18 -42 67 -57 67 -7 0 -18 10 -24 22 -7 13 -18 29 -26 36 -7 7 -13 26 -13
41 0 15 -9 36 -20 46 -11 10 -20 26 -20 36 0 10 -4 21 -10 24 -5 3 -10 19 -10
35 0 16 -4 32 -10 35 -5 3 -10 36 -10 73 0 37 -7 85 -14 107 -12 35 -18 40
-48 43 -28 2 -35 -1 -46 -27z"/>
<path d="M4080 5650 c-8 -5 -34 -10 -57 -10 -23 0 -45 -4 -48 -10 -3 -5 -14
-10 -23 -10 -21 0 -142 -134 -142 -157 0 -7 -11 -23 -25 -37 -14 -14 -25 -36
-25 -50 0 -14 -4 -28 -10 -31 -6 -3 -10 -48 -10 -100 0 -52 -4 -97 -10 -100
-6 -4 -10 -75 -10 -180 l0 -174 30 -31 c17 -17 30 -34 30 -38 0 -21 162 -192
182 -192 5 0 34 -20 62 -45 l53 -45 266 0 c166 0 268 4 272 10 3 6 21 10 40
10 35 0 65 21 65 46 0 8 10 14 24 14 14 0 28 5 31 10 3 6 17 10 30 10 14 0 29
9 35 20 6 11 19 20 29 20 10 0 26 9 36 20 10 11 21 20 25 20 19 0 110 95 110
115 0 14 8 25 20 28 19 5 20 14 20 196 0 172 -2 194 -20 226 -11 20 -20 46
-20 59 0 54 -26 100 -110 194 -11 12 -27 36 -35 52 -9 17 -22 30 -29 30 -8 0
-27 12 -43 28 -34 32 -67 52 -88 52 -8 0 -15 5 -15 10 0 6 -16 10 -35 10 -19
0 -35 5 -35 10 0 6 -41 10 -104 10 -59 0 -108 4 -111 10 -8 13 -335 13 -355 0z
m285 -100 c4 -6 55 -10 121 -10 69 0 114 -4 114 -10 0 -5 20 -10 45 -10 39 0
51 -5 86 -40 23 -22 48 -40 55 -40 8 0 14 -6 14 -13 0 -7 15 -30 34 -50 55
-60 106 -146 106 -177 0 -11 5 -29 10 -40 6 -11 15 -29 20 -40 6 -11 10 -72
10 -135 0 -70 -4 -115 -10 -115 -5 0 -10 -9 -10 -19 0 -11 -4 -23 -10 -26 -5
-3 -10 -14 -10 -24 0 -30 -34 -64 -96 -96 -60 -31 -119 -66 -142 -86 -43 -36
6 67 56 116 21 22 22 29 22 208 0 113 -4 188 -10 192 -5 3 -10 27 -10 52 0 36
-4 46 -20 50 -11 3 -20 11 -20 17 0 14 -67 76 -81 76 -5 0 -32 16 -60 35 -42
29 -60 35 -103 35 -33 0 -62 -7 -84 -20 -18 -11 -39 -20 -47 -20 -8 0 -30 -9
-50 -20 -21 -12 -54 -20 -80 -20 -72 0 -113 -29 -151 -107 -15 -29 -30 -53
-35 -53 -12 0 -12 -205 0 -244 5 -17 14 -58 20 -90 6 -36 19 -67 31 -78 11
-10 20 -28 20 -39 0 -36 49 -68 103 -69 41 0 52 -4 74 -30 l25 -30 164 0 c103
0 164 -4 164 -10 0 -5 -15 -10 -34 -10 -19 0 -37 -4 -40 -9 -3 -4 -99 -9 -213
-10 -207 -2 -208 -2 -241 23 -18 13 -46 29 -62 36 -16 6 -34 25 -41 42 -7 16
-23 34 -36 39 -12 4 -23 14 -23 20 0 15 -42 59 -57 59 -7 0 -24 22 -38 50 -26
51 -33 104 -15 115 6 4 10 65 10 150 0 85 4 146 10 150 6 3 10 14 10 24 0 9
14 27 30 39 25 19 30 29 30 66 0 30 6 48 20 61 11 10 20 28 20 39 0 14 11 26
33 36 17 7 41 22 51 32 13 11 35 18 62 18 24 0 46 5 49 10 3 6 50 10 105 10
55 0 102 -4 105 -10z"/>
<path d="M2 2448 l-2 -2448 2448 2 c1346 1 2427 3 2402 5 -308 21 -497 46
-755 98 -1316 267 -2482 1050 -3230 2170 -374 560 -628 1170 -760 1820 -52
258 -77 447 -98 755 -2 25 -4 -1056 -5 -2402z"/>
<path d="M10230 4833 c0 -152 -42 -474 -95 -738 -267 -1316 -1050 -2482 -2170
-3230 -560 -374 -1170 -628 -1820 -760 -258 -52 -447 -77 -755 -98 -25 -2
1056 -4 2403 -5 l2447 -2 0 2445 c0 1345 -2 2445 -5 2445 -3 0 -5 -26 -5 -57z"/>
<path d="M6088 4347 c-16 -6 -28 -17 -28 -24 0 -7 -4 -13 -10 -13 -18 0 -11
-36 10 -55 18 -16 25 -17 54 -7 18 7 64 12 102 12 65 0 72 2 99 30 28 29 28
30 10 50 -16 18 -30 20 -114 19 -53 -1 -108 -6 -123 -12z"/>
<path d="M2500 3325 c0 -55 -23 -112 -94 -237 -25 -43 -26 -49 -11 -54 26 -10
91 62 130 144 41 85 47 158 17 185 -32 29 -42 21 -42 -38z"/>
<path d="M2363 2275 c-58 -20 -105 -39 -176 -70 -35 -15 -177 -153 -177 -171
0 -8 -7 -14 -15 -14 -8 0 -18 -12 -21 -27 -4 -15 -18 -39 -31 -53 -12 -13 -23
-32 -23 -42 0 -9 -16 -40 -35 -69 -19 -30 -35 -59 -35 -65 0 -6 -19 -32 -41
-58 l-42 -47 38 -39 39 -39 16 27 c9 15 31 41 49 57 17 17 44 50 58 75 15 25
33 51 40 58 7 7 13 21 13 29 0 27 47 117 74 142 14 14 26 30 26 38 0 7 12 20
28 30 15 9 36 25 48 35 26 23 143 79 204 98 25 7 49 17 55 22 5 4 19 8 30 8
12 0 32 11 45 25 20 21 22 28 12 50 -10 22 -17 25 -64 24 -29 -1 -81 -12 -115
-24z"/>
<path d="M3437 999 c-26 -14 -37 -26 -35 -37 3 -9 11 -15 19 -13 38 11 211 13
222 2 6 -6 20 -11 32 -11 35 0 109 -30 135 -55 14 -13 54 -37 90 -53 69 -31
115 -70 126 -106 3 -11 15 -42 26 -67 31 -73 56 -80 289 -77 l194 3 27 54 c63
124 144 221 184 221 13 0 26 5 29 10 4 6 66 10 155 10 81 0 155 3 164 6 21 8
21 40 0 48 -27 10 -312 7 -319 -4 -3 -5 -21 -10 -40 -10 -28 0 -44 -11 -97
-63 -37 -37 -77 -90 -97 -129 -20 -39 -44 -71 -58 -77 -14 -6 -89 -11 -180
-11 -154 0 -156 0 -179 26 -13 14 -24 37 -24 52 0 30 -34 92 -50 92 -5 0 -10
5 -10 11 0 21 -34 38 -75 39 -33 0 -46 7 -78 39 -21 21 -54 47 -75 56 -20 10
-50 23 -66 31 -16 8 -42 14 -57 14 -15 0 -31 5 -34 10 -3 6 -45 10 -93 10 -67
-1 -96 -5 -125 -21z"/>
</g>
</svg>
